# xmcd
#
# Track frame offsets:
#	150
#	16051
#	31736
#	44885
#	57967
#
# Disc length: 925 seconds
# Revision: 0
# Processed by: cddbd v1.5.2PL0 Copyright (c) Steve Scherf et al.
# Submitted via: dBpowerAMP V12.0
#
DISCID=38039b05
DTITLE=Hackensaw Boys - A Fireproof House of Sunshine
DYEAR=2019
DGENRE=Americana
TTITLE0=Late Night Kitchen
TTITLE1=Pass Unloving Eyes
TTITLE2=Let's Take Us a Night Ride
TTITLE3=Factory Blues
TTITLE4=You Act Like My Friend
EXTD=
EXTT0=
EXTT1=
EXTT2=
EXTT3=
EXTT4=
PLAYORDER=
